<svg width="218" height="20" viewBox="0 0 218 20" fill="none" xmlns="http://www.w3.org/2000/svg">
<path d="M17.564 0.519999V11.244C17.564 13.932 16.8453 15.948 15.408 17.292C13.9707 18.6173 11.824 19.28 8.968 19.28C6.09333 19.28 3.93733 18.6173 2.5 17.292C1.06267 15.948 0.344 13.932 0.344 11.244V0.519999H6.084V11.552C6.084 12.672 6.32667 13.512 6.812 14.072C7.29733 14.632 8.016 14.912 8.968 14.912C9.92 14.912 10.6387 14.632 11.124 14.072C11.6093 13.512 11.852 12.672 11.852 11.552V0.519999H17.564ZM26.3263 0.519999V19H20.6143V0.519999H26.3263ZM46.6031 0.519999V11.244C46.6031 13.932 45.8844 15.948 44.4471 17.292C43.0097 18.6173 40.8631 19.28 38.0071 19.28C35.1324 19.28 32.9764 18.6173 31.5391 17.292C30.1017 15.948 29.3831 13.932 29.3831 11.244V0.519999H35.1231V11.552C35.1231 12.672 35.3657 13.512 35.8511 14.072C36.3364 14.632 37.0551 14.912 38.0071 14.912C38.9591 14.912 39.6777 14.632 40.1631 14.072C40.6484 13.512 40.8911 12.672 40.8911 11.552V0.519999H46.6031ZM67.1533 19H60.2653L57.3533 13.68L54.6093 19H48.1133L54.3293 9.76L48.4213 0.519999H55.1693L57.8013 5.616L60.4613 0.519999H66.6773L60.7973 9.592L67.1533 19ZM84.7154 0.519999C87.6088 0.519999 89.8114 1.32267 91.3234 2.928C92.8354 4.53333 93.5914 6.81067 93.5914 9.76C93.5914 12.6907 92.8354 14.968 91.3234 16.592C89.8114 18.1973 87.6088 19 84.7154 19H76.2314V0.519999H84.7154ZM84.0154 14.828C85.3968 14.828 86.3581 14.4173 86.8994 13.596C87.4408 12.756 87.7114 11.4773 87.7114 9.76C87.7114 8.04267 87.4408 6.77333 86.8994 5.952C86.3581 5.112 85.3968 4.692 84.0154 4.692H81.9434V14.828H84.0154ZM96.3018 19V0.519999H111.198V4.804H102.014V7.8H109.35V11.776H102.014V14.716H111.562V19H96.3018ZM121.556 0.24C123.31 0.24 124.869 0.482666 126.232 0.967999C127.594 1.43467 128.789 2.15333 129.816 3.124L127.324 6.792C126.484 6.08267 125.588 5.532 124.636 5.14C123.702 4.72933 122.666 4.524 121.528 4.524C120.949 4.524 120.482 4.58 120.128 4.692C119.773 4.804 119.512 4.96267 119.344 5.168C119.194 5.35467 119.12 5.56933 119.12 5.812C119.12 6.11067 119.297 6.35333 119.652 6.54C120.025 6.72667 120.538 6.89467 121.192 7.044L123.992 7.688C125.858 8.11733 127.249 8.752 128.164 9.592C129.078 10.4133 129.536 11.5427 129.536 12.98C129.536 14.38 129.181 15.5467 128.472 16.48C127.781 17.4133 126.829 18.1133 125.616 18.58C124.402 19.0467 123.03 19.28 121.5 19.28C120.286 19.28 119.101 19.1587 117.944 18.916C116.805 18.6733 115.76 18.328 114.808 17.88C113.856 17.4133 113.034 16.8627 112.344 16.228L114.808 12.448C115.312 12.9333 115.928 13.372 116.656 13.764C117.384 14.1373 118.158 14.436 118.98 14.66C119.801 14.884 120.594 14.996 121.36 14.996C121.901 14.996 122.34 14.9493 122.676 14.856C123.03 14.744 123.282 14.5947 123.432 14.408C123.581 14.2213 123.656 13.9973 123.656 13.736C123.656 13.4187 123.534 13.1667 123.292 12.98C123.049 12.7747 122.592 12.5973 121.92 12.448L118.84 11.748C117.832 11.524 116.898 11.216 116.04 10.824C115.181 10.432 114.49 9.89067 113.968 9.2C113.464 8.49067 113.212 7.56667 113.212 6.428C113.212 5.21467 113.538 4.14133 114.192 3.208C114.845 2.27467 115.797 1.54667 117.048 1.024C118.298 0.501333 119.801 0.24 121.556 0.24ZM137.725 0.519999V19H132.013V0.519999H137.725ZM148.874 19.28C147.25 19.28 145.803 18.9253 144.534 18.216C143.264 17.5067 142.266 16.4427 141.538 15.024C140.81 13.6053 140.446 11.8693 140.446 9.816C140.446 7.8 140.819 6.08267 141.566 4.664C142.331 3.22667 143.423 2.13467 144.842 1.388C146.26 0.622666 147.94 0.24 149.882 0.24C152.066 0.24 153.82 0.631999 155.146 1.416C156.49 2.2 157.526 3.44133 158.254 5.14L152.934 7.128C152.747 6.21333 152.392 5.56933 151.87 5.196C151.347 4.804 150.694 4.608 149.91 4.608C149.107 4.608 148.435 4.804 147.894 5.196C147.371 5.56933 146.979 6.13867 146.718 6.904C146.456 7.66933 146.326 8.62133 146.326 9.76C146.326 10.992 146.466 12 146.746 12.784C147.044 13.568 147.492 14.1467 148.09 14.52C148.687 14.8747 149.424 15.052 150.302 15.052C150.75 15.052 151.16 15.0053 151.534 14.912C151.907 14.8 152.234 14.6413 152.514 14.436C152.812 14.2307 153.036 13.9787 153.186 13.68C153.335 13.3627 153.41 12.9987 153.41 12.588V12.448H149.77V8.78H158.226V19H154.39L153.942 14.324L154.838 15.22C154.502 16.5267 153.83 17.5347 152.822 18.244C151.814 18.9347 150.498 19.28 148.874 19.28ZM178.769 0.519999V19H172.497L167.457 9.844L166.281 7.352H166.225L166.337 10.992V19H161.353V0.519999H167.597L172.637 9.676L173.841 12.168H173.869L173.757 8.528V0.519999H178.769ZM182.188 19V0.519999H197.084V4.804H187.9V7.8H195.236V11.776H187.9V14.716H197.448V19H182.188ZM209.235 0.519999C211.531 0.519999 213.304 1.052 214.555 2.116C215.824 3.16133 216.459 4.56133 216.459 6.316C216.459 8.276 215.843 9.76 214.611 10.768C213.379 11.776 211.605 12.28 209.291 12.28L208.731 12.588H205.371V19H199.771V0.519999H209.235ZM208.311 8.696C209.113 8.696 209.711 8.54667 210.103 8.248C210.513 7.93067 210.719 7.41733 210.719 6.708C210.719 5.99867 210.513 5.48533 210.103 5.168C209.711 4.85067 209.113 4.692 208.311 4.692H205.371V8.696H208.311ZM211.699 9.9L217.523 19H211.279L206.771 10.908L211.699 9.9Z" fill="#1B1A19"/>
</svg>
